<?xml version="1.0" standalone="no"?><!DOCTYPE svg PUBLIC "-//W3C//DTD SVG 1.1//EN" "http://www.w3.org/Graphics/SVG/1.1/DTD/svg11.dtd"><svg t="1786170987504" class="icon" viewBox="0 0 1024 1024" version="1.1" xmlns="http://www.w3.org/2000/svg" p-id="9819" xmlns:xlink="http://www.w3.org/1999/xlink" width="200" height="200"><path fill="#989898" d="M308.377435 102.251961C318.982967 47.176334 372.449479 0 448.66303 0c39.496466 0 68.314257 20.040799 85.063685 46.07921 11.995223 18.577967 17.919693 39.935315 20.040799 60.341823 13.384913-4.388496 27.35496-6.582744 41.398147-6.655886 38.911333 0 68.021691 19.455666 85.72196 44.616378 16.822569 23.990446 23.551596 53.100804 23.551596 79.724347v29.988058c0.146283 98.960589 0.292566 197.921178 0.658274 296.954909-0.073142 13.165489 1.097124 26.47726 3.510797 39.569608 8.484426-7.533585 16.237436-15.213453 24.795004-23.69788l13.165488-13.019205c13.970046-13.604338 30.353765-28.598367 49.809432-41.178723 42.056422-27.208676 93.694394-39.642749 162.813209-22.600755 27.574384 6.802169 44.982086 25.380136 54.344211 44.543236 8.776992 18.285401 11.117524 38.545625 10.386108 56.392176-1.38969 33.864562-14.920887 75.26271-43.738679 101.447404l-1.755398 1.755398c-37.375359 36.424518-75.335851 72.263904-113.881477 107.518157-31.450889 28.964075-63.486912 57.050451-96.327491 84.478552-29.037217 24.063587-58.293858 46.51806-80.967755 58.952132A491.511574 491.511574 0 0 1 421.527495 1023.982446a45.567219 45.567219 0 0 1-46.810626-44.25067c0-24.795004 20.699074-44.835803 46.225493-44.762661a395.403507 395.403507 0 0 0 215.036314-64.072045 49.955715 49.955715 0 0 1 4.022788-2.340531c13.458055-7.167877 37.009651-24.502437 67.363417-49.590007 31.597173-26.47726 62.609212-53.612795 92.889836-81.552888a5027.973235 5027.973235 0 0 0 111.687228-105.470192l1.755399-1.755398 0.585133-0.511991 1.682257-1.535974a42.056422 42.056422 0 0 0 9.362125-15.140312c3.291372-8.118718 5.119912-16.749427 5.631903-25.453278a46.07921 46.07921 0 0 0-1.023982-12.580356c-39.715891-8.557568-62.536071-0.658274-81.479746 11.556374a234.126272 234.126272 0 0 0-35.473678 29.841774l-10.386108 10.239824c-9.800975 9.654692-20.845357 20.699074-31.96288 30.500049l-0.146283 0.146283c-19.016817 16.603144-42.787838 31.597173-70.435364 32.182306a74.897002 74.897002 0 0 1-65.096027-35.54682 141.602144 141.602144 0 0 1-18.870534-51.930538 302.074822 302.074822 0 0 1-4.169071-50.613989c-0.365708-99.033731-0.511991-198.213745-0.511992-297.247476v-29.988058c0-13.311772-3.65708-24.136729-7.826151-30.13434a13.896905 13.896905 0 0 0-4.388496-4.388496 7.679868 7.679868 0 0 0-4.022789-0.804558 46.956909 46.956909 0 0 0-28.232658 10.532391 30.719473 30.719473 0 0 0-12.214648 24.721862v232.736582a45.567219 45.567219 0 0 1-46.591201 44.543236 45.567219 45.567219 0 0 1-46.51806-44.616378V124.340726c0-14.628321-3.364514-25.745844-7.094736-31.45089a10.093541 10.093541 0 0 0-2.925664-3.364514 1.901682 1.901682 0 0 0-0.511991-0.292566 9.435267 9.435267 0 0 0-2.340531-0.146283c-38.618767 0-49.443724 23.697879-49.078016 33.791421v1.682256l-0.292567 77.822666v3.876505l-1.023982 253.508797a45.567219 45.567219 0 0 1-46.810626 44.323812 45.567219 45.567219 0 0 1-46.298635-44.68952l1.023983-250.656274a32.036022 32.036022 0 0 0-7.75301-15.140312c-1.82854-1.682257-5.851328-4.827346-17.188277-4.827346a41.178723 41.178723 0 0 0-26.477261 9.069559c-5.558762 4.754204-10.678674 12.580356-10.678674 26.257835v296.589202a45.567219 45.567219 0 0 1-46.518059 44.543236 45.567219 45.567219 0 0 1-46.51806-44.616378v-169.688519a31.158323 31.158323 0 0 0-4.607921-5.705045 11.84894 11.84894 0 0 0-5.193054-3.218231c-1.023982-0.292566-4.681063-1.023982-12.653497 1.462832-17.700268 5.705045-26.111552 14.994029-30.792615 27.208676-5.48562 14.189471-6.582744 35.10797-1.097124 61.438947 42.202705 201.139409 64.949744 301.123981 83.162003 350.34828 16.091153 43.372971 47.615184 81.918596 90.915013 109.566122a43.372971 43.372971 0 0 1 12.872922 61.804654 47.834609 47.834609 0 0 1-64.510894 12.28779c-59.171557-37.741067-103.934218-91.500146-127.046965-153.963075C71.179216 755.406479 46.896203 647.449472 5.571197 449.601435-1.889246 414.127758-3.059512 375.216425 10.471685 340.108455 24.734297 302.806238 54.210364 273.330171 99.265591 258.921276c16.603144-5.558762 34.376554-7.460444 51.784255-5.631904v-29.256641c0-81.18718 67.655983-124.340726 130.265196-124.340726 9.435267 0 18.431684 0.877699 27.062393 2.486815z" p-id="9820"></path></svg>